<svg width="64" height="64" viewBox="0 0 64 64" fill="none" xmlns="http://www.w3.org/2000/svg">
  <defs>
    <linearGradient id="bg" x1="8" y1="5" x2="56" y2="59" gradientUnits="userSpaceOnUse">
      <stop offset="0" stop-color="#b8ffd0"/><stop offset="0.24" stop-color="#34c96f"/>
      <stop offset="0.62" stop-color="#0d6f3f"/><stop offset="1" stop-color="#06301f"/>
    </linearGradient>
    <linearGradient id="cube" x1="17" y1="11" x2="47" y2="45" gradientUnits="userSpaceOnUse">
      <stop stop-color="#f0fff5"/><stop offset="0.38" stop-color="#6cf59b"/><stop offset="1" stop-color="#0b673b"/>
    </linearGradient>
    <linearGradient id="cubeSide" x1="32" y1="13" x2="48" y2="43" gradientUnits="userSpaceOnUse">
      <stop stop-color="#70efa3"/><stop offset="1" stop-color="#07381f"/>
    </linearGradient>
    <filter id="shadow" x="-10" y="-10" width="84" height="84" color-interpolation-filters="sRGB">
      <feDropShadow dx="0" dy="2" stdDeviation="2" flood-color="#01180c" flood-opacity="0.62"/>
    </filter>
    <filter id="glow" x="-18" y="-18" width="100" height="100" color-interpolation-filters="sRGB">
      <feGaussianBlur stdDeviation="1.1" result="blur"/>
      <feColorMatrix in="blur" type="matrix" values="0.3 0 0 0 0.15  0 1 0 0 0.85  0 0 0.45 0 0.35  0 0 0 0.9 0"/>
      <feMerge><feMergeNode/><feMergeNode in="SourceGraphic"/></feMerge>
    </filter>
  </defs>
  <rect x="3" y="3" width="58" height="58" rx="14" fill="#02180c"/>
  <rect x="5" y="5" width="54" height="54" rx="12" fill="url(#bg)"/>
  <rect x="5.5" y="5.5" width="53" height="53" rx="11.5" stroke="#cbffdd" stroke-width="3"/>
  <rect x="8" y="8" width="48" height="48" rx="9" stroke="#eafff0" stroke-opacity="0.34" stroke-width="1"/>
  <g opacity="0.18" stroke="#e0ffea" stroke-width="1">
    <path d="M13 48H52"/><path d="M15 38H51"/><path d="M19 18V52"/><path d="M32 13V52"/><path d="M44 17V52"/>
  </g>
  <g filter="url(#shadow)">
    <path d="M31.8 10.8L47.4 19.7V37.2L31.8 46.3L16.2 37.2V19.7L31.8 10.8Z" fill="url(#cube)" stroke="#f0fff5" stroke-width="1.35"/>
    <path d="M31.8 10.8V27.4L16.2 19.7L31.8 10.8Z" fill="#e3ffeb" fill-opacity="0.72"/>
    <path d="M31.8 10.8L47.4 19.7L31.8 27.4V10.8Z" fill="#6bf29b" fill-opacity="0.76"/>
    <path d="M16.2 19.7L31.8 27.4V46.3L16.2 37.2V19.7Z" fill="#148d4d" fill-opacity="0.63"/>
    <path d="M47.4 19.7L31.8 27.4V46.3L47.4 37.2V19.7Z" fill="url(#cubeSide)" fill-opacity="0.78"/>
    <path d="M16.2 19.7L31.8 27.4L47.4 19.7M31.8 10.8V46.3M16.2 37.2L31.8 27.4L47.4 37.2" stroke="#f7fff9" stroke-opacity="0.66" stroke-width="1"/>
  </g>
  <g filter="url(#glow)" stroke-linecap="round" stroke-linejoin="round">
    <path d="M17.9 44.4L26.4 36.1L39.7 38.6L48.2 47.4L33.3 51.4L17.9 44.4L33.3 51.4L39.7 38.6" stroke="#ffffff" stroke-width="3.15"/>
    <path d="M17.9 44.4L26.4 36.1L39.7 38.6L48.2 47.4L33.3 51.4L17.9 44.4L33.3 51.4L39.7 38.6" stroke="#5af08f" stroke-width="1.18"/>
  </g>
  <g fill="#ffffff" stroke="#08733d" stroke-width="0.7">
    <circle cx="17.9" cy="44.4" r="2.55"/><circle cx="26.4" cy="36.1" r="2.55"/>
    <circle cx="39.7" cy="38.6" r="2.55"/><circle cx="48.2" cy="47.4" r="2.55"/>
    <circle cx="33.3" cy="51.4" r="2.55"/>
  </g>
  <g opacity="0.8" stroke="#f0fff5" stroke-width="1.1" stroke-linecap="round">
    <path d="M49 15.3L53.5 19.8"/><path d="M53.5 15.3L49 19.8"/>
    <path d="M11.7 15.2H19.5"/><path d="M11.7 18H18.2"/>
  </g>
</svg>